<svg xmlns="http://www.w3.org/2000/svg" width="1418" height="834.5" viewBox="0 0 1418 834.5">
  <g id="Group_105883" data-name="Group 105883" transform="translate(52)">
    <rect id="Rectangle_56092" data-name="Rectangle 56092" width="1366" height="768" fill="#f2fcfb"/>
    <g id="hospital-cross-in-3d-circle" transform="translate(-52.452 53.4)">
      <path id="Path_1" data-name="Path 1" d="M224.515,162.98a89.419,89.419,0,0,1-115.053,39.127,80.727,80.727,0,0,0,12.017.945,82.026,82.026,0,1,0-19.4-161.48A89.761,89.761,0,0,1,224.515,162.98Zm-187.443-10.9A113.283,113.283,0,0,1,145.691,6.793a111.41,111.41,0,0,1,20.653,2A119.736,119.736,0,0,0,121.588,0,121.049,121.049,0,0,0,5.457,155.289C20.535,206.4,68.25,242.1,121.494,242.1a121.244,121.244,0,0,0,34.27-4.966,123.754,123.754,0,0,0,20.254-8.074A112.891,112.891,0,0,1,37.072,152.079Zm71.14-77.41v29.772H78.448v31.233h29.765v29.765h31.233V135.674H169.21V104.442H139.445V74.669Z" transform="translate(0 0)" fill="#e2f8f4"/>
    </g>
    <g id="hospital-cross-in-3d-circle-2" data-name="hospital-cross-in-3d-circle" transform="translate(1021.548 592.4)">
      <path id="Path_1-2" data-name="Path 1" d="M224.515,162.98a89.419,89.419,0,0,1-115.053,39.127,80.727,80.727,0,0,0,12.017.945,82.026,82.026,0,1,0-19.4-161.48A89.761,89.761,0,0,1,224.515,162.98Zm-187.443-10.9A113.283,113.283,0,0,1,145.691,6.793a111.41,111.41,0,0,1,20.653,2A119.736,119.736,0,0,0,121.588,0,121.049,121.049,0,0,0,5.457,155.289C20.535,206.4,68.25,242.1,121.494,242.1a121.244,121.244,0,0,0,34.27-4.966,123.754,123.754,0,0,0,20.254-8.074A112.891,112.891,0,0,1,37.072,152.079Zm71.14-77.41v29.772H78.448v31.233h29.765v29.765h31.233V135.674H169.21V104.442H139.445V74.669Z" transform="translate(0 0)" fill="#e2f8f4"/>
    </g>
    <g id="hospital-cross-in-3d-circle-3" data-name="hospital-cross-in-3d-circle" transform="translate(289.051 467.699)">
      <path id="Path_1-3" data-name="Path 1" d="M115.863,83.948A46.058,46.058,0,0,1,56.6,104.1a41.581,41.581,0,0,0,6.19.487A42.25,42.25,0,1,0,52.8,21.412a46.234,46.234,0,0,1,63.062,62.536ZM19.314,78.333A58.35,58.35,0,0,1,75.262,3.5,57.386,57.386,0,0,1,85.9,4.529,61.674,61.674,0,0,0,62.847,0a62.351,62.351,0,1,0,17.6,122.143,63.744,63.744,0,0,0,10.433-4.159A58.148,58.148,0,0,1,19.314,78.333ZM55.957,38.461V53.8H40.626V69.883H55.957V85.215H72.045V69.883H87.376V53.8H72.045V38.461Z" transform="translate(0 0)" fill="#e2f8f4"/>
    </g>
    <g id="hospital-cross-in-3d-circle-4" data-name="hospital-cross-in-3d-circle" transform="translate(1056.017 112.1)">
      <path id="Path_1-4" data-name="Path 1" d="M115.863,83.948A46.058,46.058,0,0,1,56.6,104.1a41.581,41.581,0,0,0,6.19.487A42.25,42.25,0,1,0,52.8,21.412a46.234,46.234,0,0,1,63.062,62.536ZM19.314,78.333A58.35,58.35,0,0,1,75.262,3.5,57.386,57.386,0,0,1,85.9,4.529,61.674,61.674,0,0,0,62.847,0a62.351,62.351,0,1,0,17.6,122.143,63.744,63.744,0,0,0,10.433-4.159A58.148,58.148,0,0,1,19.314,78.333ZM55.957,38.461V53.8H40.626V69.883H55.957V85.215H72.045V69.883H87.376V53.8H72.045V38.461Z" transform="translate(0 0)" fill="#e2f8f4"/>
    </g>
  </g>
</svg>
